# xmcd
#
# Track frame offsets:
#	150
#	15105
#	26757
#	38097
#	50285
#	62800
#	77637
#	88185
#	100317
#	112332
#
# Disc length: 1661 seconds
#
# Revision: 1
# Processed by: cddbd v1.5PL3 Copyright (c) Steve Scherf et al.
# Submitted via: audiograbber 1.83.01
#
DISCID=78067b0a
DTITLE=La Dinastia De Tuzantla, Mich. - Mas Impactante Que Nunca
DYEAR=1900
DGENRE=Latin
TTITLE0=Paloma Errante
TTITLE1=Imposible Olvidarte
TTITLE2=El Senor De Las Canas
TTITLE3=Vino Maldito
TTITLE4=La Lampara
TTITLE5=Conchita
TTITLE6=Me Persigue Tu Sombra
TTITLE7=Morena La Causa Fuiste
TTITLE8=Corazoncio Tirano
TTITLE9=Acaso Vuelves
EXTD=
EXTT0=
EXTT1=
EXTT2=
EXTT3=
EXTT4=
EXTT5=
EXTT6=
EXTT7=
EXTT8=
EXTT9=
PLAYORDER=
